<svg t="1713067833222" class="icon" viewBox="0 0 1024 1024" version="1.1" xmlns="http://www.w3.org/2000/svg" p-id="13122" width="240" height="240"><path d="M998.707566 975.427057h-110.391029c-11.263936 0-20.479884-12.065323-20.479884-23.440563l-0.111304 2.871636c0.623301-97.635622-34.081199-291.793829-202.839897-540.335033l-0.511997-0.623301a10.618375 10.618375 0 0 1-1.958945-6.032661c0-4.518931 6.967613-8.303257 10.863243-9.727945l-4.207281-0.111304c100.462737-39.134388 200.413476 15.27087 241.261941 44.165316l0.111304-0.111304a9.616641 9.616641 0 0 0 15.137305-10.017335l-0.200346-1.046255c-33.079465-131.071259-139.975557-170.495036-180.824022-180.824021v-0.311651a10.351246 10.351246 0 0 1-5.631968-17.096251c37.375789-45.078006 103.935413-47.125995 143.448233-45.411917v-0.089043a9.727945 9.727945 0 0 0 6.054922-17.318859c-119.005936-94.27425-239.414299-25.599855-281.709712-0.712344l-1.224341 1.023995c4.18502-5.231275-2.159292 0.200347-4.006934 0.200346a10.239942 10.239942 0 0 1-10.239942-10.351245h-0.28939c-3.89563-79.381812 7.79126-120.875839 21.815529-145.807872a9.661163 9.661163 0 0 0-12.087584-13.579054l0.089043 0.178086C526.84658 28.49954 478.006509 102.13808 461.622601 129.118102v-1.958946c-1.736338 3.071983-5.119971 7.078917-8.815254 7.078917a9.972813 9.972813 0 0 1-6.544659-2.448682l-0.222607-1.647295c-99.305178-62.708515-189.015975-48.239032-234.895368-27.469758l-0.400694 0.111304a9.416295 9.416295 0 0 0-5.743272 9.839248c0.400693 4.563452 3.940152 8.236475 8.503605 8.792994l0.511997-0.200347c40.047078 6.455616 103.312112 29.91844 132.206557 114.553788h2.671289a10.306724 10.306724 0 0 1-6.566919 13.935225l-0.934952 0.222608c-38.065872 13.17836-172.031028 78.758511-106.384094 279.149726 1.023994 4.296324 4.808321 7.568653 9.416295 7.568653a9.57212 9.57212 0 0 0 9.327251-7.257002c19.544933-46.747562 66.960317-140.242686 141.622852-139.419038l-6.767266 0.089043c5.631968 0 10.239942 4.607974 10.239942 10.351246l-0.111304 1.113037c-4.385367 45.812611-7.056656 226.102374 106.406355 278.882597l-0.823647 1.224341a10.46255 10.46255 0 0 0 4.095977 0.912691 9.616641 9.616641 0 0 0 9.215948-12.087584l-2.159293-10.017335c-12.176627-59.948183-28.671838-202.03851 64.33355-221.605704l0.60104 3.472676c0.511997-0.089043 0.823648-3.472676 1.335645-3.472676 4.49667 0 8.280997 3.383633 9.616641 7.47961l0.400693 0.511997c31.966428 76.109483 104.15802 243.710623 51.823012 508.769298h-0.111304c-1.625034 9.616641-10.017335 19.656237-20.05693 19.656237H364.343151c12.087584-2.448682 21.192228-11.575587 21.192228-24.375514h4.095977c21.904572 0 42.384456-16.806862 42.384456-38.934041v-239.74821c0-22.104919-28.560534-31.944167-48.016424-31.944167h-15.87191l0.222607-43.631058c0-11.263936-9.638902-20.479884-21.615182-20.479884h-106.495398c-11.68689 0-15.782867 8.058389-15.782868 18.031202l-0.511997 45.857132-21.303531-0.111304c-23.440563 0-42.384456 17.65277-42.384457 39.468299v233.069987c0 21.704225 14.95922 39.356995 38.399783 39.356995h0.222608c0 12.599581 14.625309 21.080924 26.712892 23.440563H25.378806C11.354538 975.248971 0.001558 984.041965 0.001558 998.26658A25.533073 25.533073 0 0 0 25.378806 1024h973.239717A25.599855 25.599855 0 0 0 1023.99577 998.26658c0.111304-14.135572-11.263936-22.839523-25.288204-22.839523zM335.87166 714.397576c0-5.743272 7.167959-10.551593 16.072257-10.551593 8.815255 0 16.072257 4.607974 16.072257 10.551593v155.313209c0 5.743272-7.167959 10.46255-16.072257 10.46255-8.904297 0-16.072257-4.630235-16.072257-10.46255v-155.313209z m-79.982852-106.53992h80.094156v31.966428h-80.094156v-32.010949 0.044521z m-31.944168 106.53992c0-5.743272 7.167959-10.551593 16.072257-10.551593 8.815255 0 16.094518 4.607974 16.094518 10.551593v155.313209c0 5.743272-7.167959 10.46255-16.094518 10.46255-8.904297 0-16.072257-4.630235-16.072257-10.46255v-155.313209zM271.983325 943.861323h47.905121c0 12.933492 14.647569 29.005749 26.735153 31.387648h-102.399421c11.97628-2.3819 27.759147-18.454157 27.759147-31.387648z" fill="#FA601C" p-id="13123"></path></svg>